# xmcd
#
# Track frame offsets:
#	150
#	18579
#	37296
#	52289
#	67182
#	81314
#	105666
#	125506
#	144439
#	162964
#	175677
#	195010
#	217580
#	237312
#	259674
#	279104
#	308578
#	331636
#	344890
#
# Disc length: 4664 seconds
# Revision: 2
# Processed by: cddbd v1.5.2PL0 Copyright (c) Steve Scherf et al.
# Submitted via: dBpowerAMP V12.0
#
DISCID=10123613
DTITLE=Sławek Wierzcholski - Koncert w Suwalkach
DYEAR=2010
DGENRE=Blues
TTITLE0=Papieros na śniadanie
TTITLE1=Blues mieszka w Polsce
TTITLE2=Ośli upór
TTITLE3=Zaczekaj zaczekaj
TTITLE4=Figle
TTITLE5=Godzina czwarta nad ranem
TTITLE6=Wczorajsza prawda
TTITLE7=Chodź chodź
TTITLE8=Sunburn
TTITLE9=Twarda diagnoza
TTITLE10=John Lee Hooker
TTITLE11=Hotelowy blues
TTITLE12=Poźno
TTITLE13=Nieznajomy przyjaciel
TTITLE14=Przestań już
TTITLE15=Szosta zero dwie
TTITLE16=Przegranych nikt nie lubi
TTITLE17=Amazing Grace
TTITLE18=Hejnał
EXTD=
EXTT0=
EXTT1=
EXTT2=
EXTT3=
EXTT4=
EXTT5=
EXTT6=
EXTT7=
EXTT8=
EXTT9=
EXTT10=
EXTT11=
EXTT12=
EXTT13=
EXTT14=
EXTT15=
EXTT16=
EXTT17=
EXTT18=
PLAYORDER=
